<?xml version="1.0" encoding="utf-8"?>
<!-- Generator: Adobe Illustrator 21.0.0, SVG Export Plug-In . SVG Version: 6.00 Build 0)  -->
<svg version="1.1" id="Layer_1" xmlns="http://www.w3.org/2000/svg" xmlns:xlink="http://www.w3.org/1999/xlink" x="0px" y="0px"
	 viewBox="0 0 294.4 455.4" style="enable-background:new 0 0 294.4 455.4;" xml:space="preserve">
<style type="text/css">
	.st0{fill:url(#fill_2_);}
	.st1{opacity:0.47;fill:#B3B3B3;}
	.st2{fill:#1A1A1A;}
	.st3{fill-rule:evenodd;clip-rule:evenodd;fill:#E5E5E5;}
	.st4{fill-rule:evenodd;clip-rule:evenodd;}
	.st5{fill:#E5E5E5;}
</style>
<g>
	<radialGradient id="fill_2_" cx="152.8913" cy="148.0564" r="146.0746" gradientUnits="userSpaceOnUse">
		<stop  offset="0" style="stop-color:#FFFFFF;stop-opacity:0.5"/>
		<stop  offset="1" style="stop-color:#B3B3B3"/>
	</radialGradient>
	<path id="fill" class="st0" d="M206.2,334.9c6.4-21.3,19.2-57.5,36.3-72.5c32-26.7,52.3-70.2,52.3-115
		c0-83.2-69.3-151.5-154.7-147.2C64.4,3.4,2.5,67.4,0.4,143.1c-1.1,46.9,19.2,91.5,52.3,119.3c18.1,14.9,30.9,51.1,37.3,72.5H206.2
		L206.2,334.9z"/>
	<path class="st1" d="M132.8,337h9.6L99.7,158.1c1.1,0,2.1,0,3.2,0c5.3,0,10.7-2.1,14.9-6.4c2.1-2.1,4.3-3.2,7.5-3.2
		c3.2,0,5.3,1.1,7.5,3.2c7.5,8.5,20.3,8.5,27.7,0c2.1-2.1,4.3-3.2,7.5-3.2c2.1,0,5.3,1.1,7.5,3.2c4.3,4.3,8.5,6.4,14.9,6.4
		c1.1,0,2.1,0,3.2,0L152,337h9.6l43.7-186.4c0-2.1,0-4.3-2.1-5.3c-2.1-1.1-4.3,0-5.3,1.1c-2.1,2.1-4.3,3.2-6.4,3.2
		c-3.2,0-5.3-1.1-8.5-3.2c-4.3-4.3-8.5-6.4-13.9-6.4s-9.6,2.1-13.9,6.4s-10.7,4.3-14.9,0c-3.2-4.3-8.5-6.4-13.9-6.4l0,0
		c-5.3,0-10.7,2.1-13.9,6.4c-2.1,2.1-5.3,3.2-8.5,3.2c-2.1,0-5.3-1.1-6.4-3.2c-1.1-1.1-3.2-2.1-5.3-1.1c-2.1,1.1-3.2,3.2-2.1,5.3
		L132.8,337z"/>
	<g>
		<path d="M113.9,433c5.3,12.8,18.1,22.4,33.1,22.4c14.9,0,27.7-9.6,33.1-22.4H113.9z"/>
		<path class="st2" d="M186.5,434.1h-77.9c-10.7,0-19.2-8.5-19.2-19.2v-81.1h116.3v81.1C205.7,425.5,197.1,434.1,186.5,434.1z"/>
	</g>
	<g>
		<path d="M205.1,374.3H89.9c-6.4,0-11.7-5.3-11.7-11.7l0,0c0-6.4,5.3-11.7,11.7-11.7h115.2c6.4,0,11.7,5.3,11.7,11.7l0,0
			C216.9,369,211.5,374.3,205.1,374.3z"/>
		<path d="M205.1,411.7H89.9c-6.4,0-11.7-5.3-11.7-11.7l0,0c0-6.4,5.3-11.7,11.7-11.7h115.2c6.4,0,11.7,5.3,11.7,11.7l0,0
			C216.9,406.3,211.5,411.7,205.1,411.7z"/>
	</g>
</g>
<g>
	<path class="st3" d="M147.5,421.4c-17.1,0.2-31.5-14-31.5-31.4c0-17.3,14.2-31.5,31.6-31.5c17.2,0,31.4,14.4,31.4,31.6
		C179,407.1,164.9,421.6,147.5,421.4z"/>
	<path class="st4" d="M177.7,390c0,16.7-13.6,30.1-30.3,30.1c-16.6,0-30.1-13.6-30-30.3c0-16.6,13.6-30.1,30.3-30.1
		C164.3,359.8,177.7,373.3,177.7,390z"/>
	<path class="st5" d="M131.9,373.4c0.4,0.1,0.9,0.1,1.5,0c0.7-0.2,1.1-0.6,1-1c-0.1-0.4-0.6-0.5-1.4-0.6c-1-0.1-1.8-0.4-2-1.2
		c-0.2-0.9,0.3-1.7,1.6-2c0.6-0.1,1.1-0.1,1.4-0.1l0,0.8c-0.2-0.1-0.7-0.1-1.2,0c-0.7,0.2-1,0.6-0.9,0.9c0.1,0.4,0.6,0.5,1.5,0.6
		c1.1,0.1,1.7,0.4,1.9,1.2c0.2,0.8-0.2,1.7-1.7,2.1c-0.6,0.1-1.3,0.1-1.6,0L131.9,373.4z"/>
	<path class="st5" d="M142.7,370c-0.1-0.7-0.3-1.5-0.4-2.3l0,0c-0.1,0.7-0.2,1.4-0.4,2.1l-0.5,2.4l-0.8,0.1l-1.1-2.2
		c-0.3-0.7-0.6-1.4-0.8-2l0,0c0.1,0.7,0.1,1.6,0.2,2.3l0.2,2.2l-1,0.1l-0.3-5.4l1.4-0.2l1,2.1c0.3,0.6,0.5,1.2,0.8,1.8l0,0
		c0.1-0.6,0.2-1.3,0.3-1.9l0.5-2.3l1.3-0.2l1,5.3l-1,0.1L142.7,370z"/>
	<path class="st5" d="M148,370.5l-0.6,1.5l-1.1-0.1l2.1-5.4l1.3,0.1l1.5,5.7l-1.1-0.1l-0.4-1.6L148,370.5z M149.7,369.8l-0.4-1.4
		c-0.1-0.3-0.2-0.7-0.2-1.1l0,0c-0.1,0.3-0.2,0.7-0.3,1l-0.5,1.3L149.7,369.8z"/>
	<path class="st5" d="M161.4,369.5l-1.5-0.5l0.3-0.8l3.9,1.3l-0.3,0.8l-1.5-0.5l-1.5,4.3l-1-0.3L161.4,369.5z"/>
	<g id="fill_1_">
		<path class="st3" d="M154.6,389l-27.9,12.5l17.3-10.1l-3.5-1.8l27.8-13.2c-0.6,0.3-18.1,10.8-18.1,10.8L154.6,389z"/>
		<path class="st5" d="M156.9,368.1l0.9,0.2l0.4-0.4l-3.3-0.8l-0.4,0.4l0.7,0.2c0.7,0.1,1,0.4,1.1,0.8l-1.6-0.4l-0.4,0.4l2,0.5
			c-0.2,0.5-0.7,0.8-1.5,0.6l-0.4-0.1l-0.1,0.5l1.4,2.7l0.9,0.2c-0.5-0.9-1-1.9-1.5-2.9c0.9,0.1,1.7-0.1,2-0.9l0.6,0.1l0.4-0.4
			l-1-0.2C157.1,368.4,157,368.2,156.9,368.1"/>
	</g>
	<g>
		<path class="st5" d="M133.5,404.9l0.9,0.4l-1.4,3.3c-0.6,1.4-1.5,1.6-2.4,1.2c-0.2-0.1-0.5-0.3-0.7-0.4l0.4-0.7
			c0.1,0.1,0.3,0.2,0.5,0.3c0.5,0.2,0.9,0.1,1.3-0.8L133.5,404.9z"/>
		<path class="st5" d="M140.7,409.7c-0.3,1.8-1.6,2.7-3,2.5c-1.5-0.2-2.3-1.5-2-3.1c0.3-1.7,1.5-2.7,3-2.5
			C140.2,406.8,140.9,408.1,140.7,409.7z M136.7,409.2c-0.2,1.1,0.2,2.1,1.1,2.2c0.9,0.1,1.6-0.7,1.8-1.8c0.2-1-0.2-2.1-1.1-2.2
			C137.5,407.2,136.9,408.1,136.7,409.2z"/>
		<path class="st5" d="M144.4,407.8l-0.2,3.2c-0.1,1.1,0.3,1.6,1,1.6c0.7,0,1.1-0.4,1.2-1.5l0.2-3.2l1,0l-0.2,3.2
			c-0.1,1.7-1,2.4-2.2,2.4c-1.2-0.1-2-0.8-1.9-2.5l0.2-3.2L144.4,407.8z"/>
		<path class="st5" d="M150.2,407.9l1-0.1l0.3,4.6l2.2-0.1l0.1,0.8l-3.2,0.2L150.2,407.9z"/>
		<path class="st5" d="M158.9,409.3l-1.8,0.4l0.3,1.5l2.1-0.5l0.2,0.8l-2.9,0.7l-1.2-5.2l2.8-0.7l0.2,0.8l-1.9,0.4l0.3,1.3l1.8-0.4
			L158.9,409.3z"/>
		<path class="st5" d="M162.3,409.5c0.4,0.1,0.8,0,1.3-0.1c0.6-0.2,0.8-0.6,0.6-1c-0.2-0.4-0.5-0.5-1.2-0.5c-0.9,0-1.6-0.2-1.9-0.9
			c-0.3-0.8,0.1-1.7,1.1-2.1c0.5-0.2,1-0.2,1.3-0.2l0.1,0.8c-0.2,0-0.6,0-1.1,0.1c-0.6,0.2-0.7,0.6-0.6,0.9c0.2,0.4,0.5,0.5,1.3,0.5
			c1,0,1.6,0.3,1.9,1c0.3,0.8,0,1.7-1.2,2.2c-0.5,0.2-1.1,0.3-1.4,0.2L162.3,409.5z"/>
	</g>
</g>
</svg>
